<?xml version="1.0" encoding="UTF-8"?>
<!DOCTYPE svg PUBLIC "-//W3C//DTD SVG 1.1//EN" "http://www.w3.org/Graphics/SVG/1.1/DTD/svg11.dtd">
<svg xmlns="http://www.w3.org/2000/svg" version="1.1" width="121px" height="121px" style="shape-rendering:geometricPrecision; text-rendering:geometricPrecision; image-rendering:optimizeQuality; fill-rule:evenodd; clip-rule:evenodd" xmlns:xlink="http://www.w3.org/1999/xlink">
<g><path style="opacity:1" fill="#fdfdfd" d="M -0.5,-0.5 C 39.8333,-0.5 80.1667,-0.5 120.5,-0.5C 120.5,39.8333 120.5,80.1667 120.5,120.5C 80.1667,120.5 39.8333,120.5 -0.5,120.5C -0.5,80.1667 -0.5,39.8333 -0.5,-0.5 Z"/></g>
<g><path style="opacity:1" fill="#4faa52" d="M 56.5,9.5 C 63.7707,9.03574 66.604,12.3691 65,19.5C 60.601,23.6545 56.601,23.3211 53,18.5C 52.3333,16.8333 52.3333,15.1667 53,13.5C 54.3756,12.2949 55.5423,10.9616 56.5,9.5 Z"/></g>
<g><path style="opacity:1" fill="#136eb6" d="M 34.5,46.5 C 34.5,47.8333 34.5,49.1667 34.5,50.5C 34.637,62.4386 39.3037,72.1053 48.5,79.5C 41.6947,77.015 36.028,73.015 31.5,67.5C 18.2363,43.2206 23.4029,23.8873 47,9.5C 47.6667,14.5 47.6667,19.5 47,24.5C 39.9716,30.2253 35.8049,37.5586 34.5,46.5 Z"/></g>
<g><path style="opacity:1" fill="#4da951" d="M 106.5,45.5 C 101.489,45.6659 96.4889,45.4993 91.5,45C 78.0039,31.0953 62.6706,28.7619 45.5,38C 42.6306,41.0379 39.6306,43.8712 36.5,46.5C 45.814,27.0106 61.1473,19.5106 82.5,24C 93.5083,27.8433 101.508,35.01 106.5,45.5 Z"/></g>
<g><path style="opacity:1" fill="#e0e2df" d="M 106.5,45.5 C 106.5,46.5 106.5,47.5 106.5,48.5C 101.489,48.6659 96.4889,48.4993 91.5,48C 87.978,43.5625 83.6447,40.0625 78.5,37.5C 77.8933,37.6236 77.56,37.9569 77.5,38.5C 74.6884,36.5919 71.6884,34.9252 68.5,33.5C 67.8933,33.6236 67.56,33.9569 67.5,34.5C 54.007,34.8267 43.507,40.4934 36,51.5C 35.6174,50.944 35.1174,50.6107 34.5,50.5C 34.5,49.1667 34.5,47.8333 34.5,46.5C 35.1667,46.5 35.8333,46.5 36.5,46.5C 39.6306,43.8712 42.6306,41.0379 45.5,38C 62.6706,28.7619 78.0039,31.0953 91.5,45C 96.4889,45.4993 101.489,45.6659 106.5,45.5 Z"/></g>
<g><path style="opacity:1" fill="#fdfdfd" d="M 67.5,34.5 C 79.0778,40.98 84.4111,50.98 83.5,64.5C 82.0937,64.9731 81.427,65.9731 81.5,67.5C 75.4312,76.0384 67.0979,80.7051 56.5,81.5C 53.5491,81.7128 50.8825,81.0461 48.5,79.5C 39.3037,72.1053 34.637,62.4386 34.5,50.5C 35.1174,50.6107 35.6174,50.944 36,51.5C 43.507,40.4934 54.007,34.8267 67.5,34.5 Z"/></g>
<g><path style="opacity:1" fill="#d77d32" d="M 67.5,34.5 C 67.56,33.9569 67.8933,33.6236 68.5,33.5C 71.6884,34.9252 74.6884,36.5919 77.5,38.5C 94.1992,52.1178 98.0325,68.7845 89,88.5C 85.2284,95.4399 79.7284,100.44 72.5,103.5C 71.5139,99.03 71.1805,94.3633 71.5,89.5C 76.4359,85.5648 79.7693,80.5648 81.5,74.5C 83.0114,71.4557 83.678,68.1224 83.5,64.5C 84.4111,50.98 79.0778,40.98 67.5,34.5 Z"/></g>
<g><path style="opacity:1" fill="#166eb6" d="M 15.5,50.5 C 23.8448,50.6908 26.1781,54.5241 22.5,62C 14.9505,64.9838 11.4505,62.4838 12,54.5C 12.6897,52.6498 13.8564,51.3164 15.5,50.5 Z"/></g>
<g><path style="opacity:1" fill="#d77d31" d="M 98.5,50.5 C 106.903,52.037 108.569,56.2037 103.5,63C 96.2199,64.7187 93.0532,61.8854 94,54.5C 95.3968,52.9297 96.8968,51.5964 98.5,50.5 Z"/></g>
<g><path style="opacity:1" fill="#ed9fca" d="M 26.5,69.5 C 21.6367,69.1805 16.97,69.5139 12.5,70.5C 11.9569,70.44 11.6236,70.1067 11.5,69.5C 16.6523,68.1863 21.6523,68.1863 26.5,69.5 Z"/></g>
<g><path style="opacity:1" fill="#e255a8" d="M 81.5,67.5 C 73.3717,86.238 59.0383,94.0713 38.5,91C 27.0029,88.1036 18.3362,81.6036 12.5,71.5C 12.5,71.1667 12.5,70.8333 12.5,70.5C 16.97,69.5139 21.6367,69.1805 26.5,69.5C 29.9049,73.2308 33.9049,76.2308 38.5,78.5C 44.2103,81.7677 50.2103,82.7677 56.5,81.5C 67.0979,80.7051 75.4312,76.0384 81.5,67.5 Z"/></g>
<g><path style="opacity:1" fill="#e1d9e4" d="M 31.5,67.5 C 36.028,73.015 41.6947,77.015 48.5,79.5C 50.8825,81.0461 53.5491,81.7128 56.5,81.5C 50.2103,82.7677 44.2103,81.7677 38.5,78.5C 39.2389,78.631 39.9056,78.4643 40.5,78C 36.1646,75.5087 33.1646,72.0087 31.5,67.5 Z"/></g>
<g><path style="opacity:1" fill="#e7e0e3" d="M 83.5,64.5 C 83.678,68.1224 83.0114,71.4557 81.5,74.5C 78.0998,78.4183 74.0998,82.585 69.5,87C 66.9679,88.7653 64.3013,90.2653 61.5,91.5C 57.9966,91.1289 54.9966,92.1289 52.5,94.5C 35.6388,95.8192 22.4722,89.4859 13,75.5C 12.51,74.2068 12.3433,72.8734 12.5,71.5C 18.3362,81.6036 27.0029,88.1036 38.5,91C 59.0383,94.0713 73.3717,86.238 81.5,67.5C 81.427,65.9731 82.0937,64.9731 83.5,64.5 Z"/></g>
<g><path style="opacity:1" fill="#de9968" d="M 71.5,89.5 C 71.1805,94.3633 71.5139,99.03 72.5,103.5C 72.44,104.043 72.1067,104.376 71.5,104.5C 70.1863,99.3477 70.1863,94.3477 71.5,89.5 Z"/></g>
<g><path style="opacity:1" fill="#e258a9" d="M 61.5,91.5 C 65.5825,94.4109 66.4159,98.0776 64,102.5C 55.7324,106.411 51.8991,103.745 52.5,94.5C 54.9966,92.1289 57.9966,91.1289 61.5,91.5 Z"/></g>
</svg>
